<svg version="1.1" id="Layer_1" xmlns="http://www.w3.org/2000/svg" xmlns:xlink="http://www.w3.org/1999/xlink" x="0px" y="0px"
	 width="100%" viewBox="0 0 4500 4500" enable-background="new 0 0 4500 4500" xml:space="preserve">
<path fill="#FFFFFF" opacity="1.000000" stroke="none" 
	d="
M2176.000000,4504.000000 
	C1450.746826,4504.000000 727.493652,4504.000000 4.120224,4504.000000 
	C4.120224,3004.246338 4.120224,1504.492676 4.120224,4.369535 
	C1503.587280,4.369535 3003.174805,4.369535 4503.380859,4.369535 
	C4503.380859,1503.999756 4503.380859,3003.999756 4503.380859,4504.000000 
	C3728.490967,4504.000000 2953.245361,4504.000000 2176.000000,4504.000000 
M1285.816895,3099.844971 
	C1285.816895,3099.844971 1284.109985,3099.985107 1283.166138,3096.757080 
	C1280.695190,3070.930908 1278.333984,3045.093750 1275.720337,3019.281982 
	C1273.377808,2996.146484 1270.757690,2973.039062 1268.244629,2949.776855 
	C1255.340820,2946.992920 1243.346802,2948.231201 1231.494629,2948.440674 
	C1219.829712,2948.646484 1207.845459,2946.072754 1195.835083,2950.558105 
	C1196.333618,2956.488770 1196.526855,2961.790039 1197.267334,2967.013916 
	C1199.228516,2980.850342 1201.542480,2994.636475 1203.511108,3008.471924 
	C1213.262085,3077.004395 1222.910278,3145.551270 1232.753662,3214.070557 
	C1233.286743,3217.781494 1235.257080,3221.285889 1236.407593,3224.469238 
	C1273.996460,3226.760498 1324.051270,3225.989258 1338.576782,3222.980713 
	C1345.415527,3188.091064 1372.619019,2967.472168 1372.211914,2950.201172 
	C1353.070923,2947.114990 1314.967773,2947.520020 1300.756836,2951.156738 
	C1296.363892,3000.548096 1291.946533,3050.215088 1285.816895,3099.844971 
M1585.313843,1870.413086 
	C1598.524658,1885.545044 1607.804688,1903.313110 1617.967407,1920.390625 
	C1639.379639,1956.371582 1660.156616,1992.740112 1680.670654,2029.243774 
	C1702.167725,2067.496582 1724.145874,2105.539795 1743.961304,2144.663330 
	C1778.547485,2212.949951 1811.895142,2281.869873 1845.227173,2350.782959 
	C1858.538086,2378.302979 1870.770874,2406.362305 1882.873535,2434.443848 
	C1895.493286,2463.725098 1907.592896,2493.236816 1919.508667,2522.813477 
	C1935.396606,2562.249756 1951.332886,2601.677246 1966.380859,2641.437012 
	C1975.322876,2665.063721 1985.048096,2688.123047 1996.753906,2710.610352 
	C2017.216309,2749.919189 2047.482056,2780.729004 2080.238037,2808.914307 
	C2105.393311,2830.559570 2134.397217,2847.080566 2165.796631,2859.209229 
	C2205.228271,2874.441162 2245.730469,2883.808105 2287.988770,2883.821045 
	C2753.681152,2883.962646 3219.373291,2883.913086 3685.065674,2883.886475 
	C3693.052734,2883.885986 3701.040039,2883.525879 3711.375732,2884.822021 
	C3714.725830,2887.346191 3716.516113,2893.248047 3722.517334,2890.112793 
	C3831.685059,2288.293457 3566.075195,1687.892456 3050.043701,1362.553955 
	C2538.785645,1040.224854 1872.000854,1059.972412 1378.826538,1422.414062 
	C1219.018433,1539.859619 1087.217773,1683.307007 984.573242,1853.064575 
	C875.558044,2033.358032 808.598022,2228.349365 781.364502,2437.329834 
	C769.604004,2527.575928 767.004883,2715.315186 778.116333,2751.160156 
	C778.703796,2751.160156 779.606812,2751.426514 779.883606,2751.122559 
	C1047.956177,2456.790771 1315.987305,2162.420654 1585.313843,1870.413086 
M2806.000000,3296.284424 
	C2128.214844,3296.410889 1450.429565,3296.536865 772.644470,3296.687988 
	C772.035583,3296.687988 771.372681,3296.967041 770.832703,3297.282959 
	C770.268921,3297.612793 769.823425,3298.145020 769.326172,3298.588867 
	C766.442749,3319.618164 766.968872,3354.370850 770.673462,3368.376953 
	C778.922852,3368.376953 787.507019,3368.376953 796.091187,3368.376953 
	C1771.125366,3368.376953 2746.159668,3368.376953 3721.193848,3368.376221 
	C3726.525635,3368.376221 3731.869385,3368.591064 3737.184814,3368.295166 
	C3740.968994,3368.085205 3744.714844,3367.185059 3749.108643,3366.493408 
	C3748.831787,3343.129883 3750.336670,3320.668213 3747.985596,3296.284668 
	C3434.773438,3296.284180 3122.386719,3296.284424 2806.000000,3296.284424 
M2735.807617,2999.589600 
	C2732.833496,2968.596680 2712.415771,2954.143311 2688.643799,2951.240479 
	C2680.071045,2950.193604 2671.492920,2948.567871 2662.898682,2948.438721 
	C2637.617188,2948.058838 2612.326172,2948.265869 2587.039307,2948.341309 
	C2584.499756,2948.348877 2581.962402,2949.024658 2578.444824,2949.531250 
	C2577.978271,2954.380615 2577.174561,2958.866455 2577.170654,2963.353027 
	C2577.096924,3046.534912 2577.101807,3129.717041 2577.173340,3212.898926 
	C2577.176758,3216.674316 2576.087158,3220.921387 2581.720459,3225.339600 
	C2584.395508,3225.339600 2588.971680,3225.339600 2593.547607,3225.339600 
	C2620.831299,3225.339600 2648.115234,3225.391113 2675.398438,3225.299316 
	C2681.375488,3225.279297 2687.383057,3225.046143 2693.321045,3224.401123 
	C2720.457031,3221.455078 2733.664551,3208.000732 2735.856689,3180.636230 
	C2736.811523,3168.716797 2737.311523,3156.723389 2737.253906,3144.767334 
	C2737.026611,3097.534424 2736.496582,3050.302979 2735.807617,2999.589600 
M2889.858887,3225.370850 
	C2898.194824,3224.584961 2906.961426,3227.410156 2914.517334,3223.299561 
	C2914.988525,3221.760742 2915.350098,3221.124756 2915.355225,3220.486328 
	C2915.622559,3187.193115 2915.857422,3153.899902 2916.116211,3120.606689 
	C2916.121338,3119.953125 2916.176270,3119.099854 2916.572754,3118.719727 
	C2916.839355,3118.463623 2917.748779,3118.877197 2919.875488,3119.267090 
	C2924.841797,3136.283447 2929.900635,3154.017578 2935.204590,3171.678223 
	C2940.499756,3189.311035 2943.709717,3207.627197 2951.734619,3225.741211 
	C2971.775391,3223.986084 2991.455322,3227.634521 3010.558105,3223.580322 
	C3011.104736,3220.963379 3011.610840,3219.669678 3011.611572,3218.375488 
	C3011.670654,3131.762451 3011.706787,3045.149170 3011.635986,2958.536133 
	C3011.633545,2955.447754 3010.538330,2952.360596 3010.013916,2949.595947 
	C2982.103027,2946.847168 2966.042725,2947.437744 2953.085693,2951.900879 
	C2953.085693,2962.724609 2953.085449,2973.981934 2953.085449,2985.239258 
	C2953.085205,2997.231934 2953.240723,3009.227295 2953.038818,3021.216553 
	C2952.856201,3032.068848 2953.950684,3043.033203 2950.617432,3054.034424 
	C2937.108154,3019.397949 2928.013428,2983.527588 2915.430908,2948.291748 
	C2896.072510,2948.521240 2877.619873,2947.450439 2858.293213,2949.120361 
	C2857.814453,2953.368164 2857.218994,2956.544678 2857.131592,2959.735352 
	C2855.200928,3030.422119 2856.306885,3205.588379 2858.927490,3224.460938 
	C2867.718994,3226.079346 2877.010742,3225.115234 2889.858887,3225.370850 
M2551.734375,3173.942383 
	C2551.734131,3104.669678 2551.785400,3035.396729 2551.639160,2966.124268 
	C2551.627197,2960.417969 2553.627930,2954.085449 2547.980225,2948.446289 
	C2530.784912,2948.347168 2513.013428,2947.657715 2495.052734,2948.915283 
	C2491.897949,2957.093018 2493.417969,2964.469971 2493.140625,2971.632568 
	C2492.883057,2978.283447 2493.085693,2984.951904 2493.085693,2991.612793 
	C2493.085449,2998.939697 2493.085449,3006.266602 2493.085205,3013.593506 
	C2493.085205,3020.254395 2493.244385,3026.919922 2493.039795,3033.574463 
	C2492.832520,3040.316406 2494.013672,3047.279541 2490.589355,3057.677979 
	C2476.631348,3019.358398 2468.329834,2983.221680 2455.265625,2948.243408 
	C2444.908691,2948.243408 2435.599365,2948.008301 2426.307617,2948.310303 
	C2417.197266,2948.606445 2407.891357,2946.929199 2399.214355,2949.514648 
	C2396.396729,2967.059814 2396.310303,3206.557373 2398.948975,3223.273926 
	C2414.197754,3226.068848 2437.482178,3226.161865 2455.617676,3223.242432 
	C2455.849609,3206.367188 2455.705322,3189.176270 2455.728760,3171.992432 
	C2455.753174,3154.204102 2455.734375,3136.415771 2455.734375,3115.491943 
	C2464.051270,3125.366211 2464.037354,3135.059082 2467.069580,3143.423096 
	C2470.235840,3152.155762 2472.215820,3161.317627 2474.737549,3170.285156 
	C2477.258545,3179.249756 2479.808594,3188.205811 2482.346191,3197.165527 
	C2484.865723,3206.060547 2487.385986,3214.955566 2490.238770,3225.025146 
	C2510.648926,3225.534424 2530.386230,3225.654053 2550.666016,3224.927002 
	C2552.735596,3208.353760 2551.281250,3193.100098 2551.734375,3173.942383 
M839.655518,3113.979004 
	C839.652649,3129.974121 839.794678,3145.971680 839.564575,3161.963379 
	C839.488708,3167.239258 839.160217,3172.731934 837.551392,3177.670898 
	C836.760498,3180.098877 832.993225,3182.524902 830.196899,3183.089355 
	C826.644897,3183.806641 823.834473,3180.719727 823.269104,3177.300781 
	C822.192200,3170.789307 821.303894,3164.157227 821.288818,3157.572998 
	C821.146301,3094.925781 821.227356,3032.278076 821.168152,2969.630371 
	C821.161987,2963.145020 820.663330,2956.659912 820.337219,2948.831543 
	C808.033386,2947.925781 796.800293,2948.008301 785.641663,2948.415527 
	C774.606750,2948.818359 763.245361,2946.166260 752.565125,2950.458984 
	C752.214172,2953.204590 751.738953,2955.172119 751.743713,2957.138672 
	C751.909302,3025.776367 751.818604,3094.416748 752.452087,3163.050537 
	C752.767822,3197.257568 770.525513,3218.709961 803.530396,3228.327637 
	C815.993225,3231.959473 828.545044,3232.049561 841.163574,3231.611816 
	C881.052185,3230.229248 907.597168,3204.480225 908.145325,3164.638916 
	C909.098572,3095.348145 908.873169,3026.040771 909.041321,2956.740234 
	C909.047119,2954.314209 907.977844,2951.885498 907.177307,2948.465088 
	C884.706665,2948.569336 863.036377,2947.251953 841.929077,2949.269775 
	C840.937378,2951.696045 840.036804,2952.874756 840.032776,2954.056641 
	C839.857422,3006.033203 839.761230,3058.010010 839.655518,3113.979004 
M934.797913,3081.999756 
	C935.007568,3128.621338 935.212952,3175.242920 935.485718,3221.864258 
	C935.488464,3222.332031 936.381104,3222.794678 936.892334,3223.292725 
	C957.288269,3226.399170 977.896240,3226.038086 992.340332,3222.006348 
	C992.340332,3218.430908 992.339966,3214.525146 992.340393,3210.619385 
	C992.340820,3206.621826 992.342346,3202.624512 992.342773,3198.626953 
	C992.343201,3194.629395 992.342896,3190.632080 992.342896,3186.634521 
	C992.342896,3182.636963 992.342896,3178.639648 992.342896,3174.642090 
	C992.342896,3170.644531 992.342896,3166.647217 992.342896,3162.649658 
	C992.342896,3158.652100 992.342896,3154.654541 992.342896,3150.656982 
	C992.342896,3146.659424 992.342773,3142.662109 992.343018,3138.664551 
	C992.343262,3134.666992 992.100769,3130.650146 992.418152,3126.677979 
	C992.691528,3123.256592 991.089233,3119.388428 995.072876,3114.913086 
	C1008.080078,3151.580566 1015.399963,3188.697998 1027.480713,3223.731689 
	C1053.938232,3226.627930 1075.404419,3225.970215 1087.813599,3221.937256 
	C1087.977051,3219.500488 1088.303711,3216.895020 1088.304688,3214.289307 
	C1088.333740,3129.676025 1088.352661,3045.062500 1088.263794,2960.449219 
	C1088.259888,2956.720947 1087.228882,2952.993408 1086.599243,2948.745361 
	C1067.700928,2948.550293 1049.983887,2946.977051 1031.770996,2949.753906 
	C1031.404175,2954.504395 1030.983398,2958.398193 1030.835205,2962.302490 
	C1030.683594,2966.294434 1030.798828,2970.296143 1030.798218,2974.293701 
	C1030.797607,2978.291260 1030.797974,2982.288574 1030.797974,2986.286133 
	C1030.797974,2990.283691 1030.797974,2994.281006 1030.797974,2998.278564 
	C1030.797974,3002.276123 1030.797974,3006.273438 1030.797974,3010.270996 
	C1030.797974,3014.268555 1030.797974,3018.265869 1030.797974,3022.263428 
	C1030.797974,3026.260986 1030.799438,3030.258545 1030.797241,3034.256104 
	C1030.795166,3038.253662 1031.221313,3042.313721 1030.652954,3046.229248 
	C1030.170410,3049.554443 1032.999634,3053.856201 1027.288574,3057.077393 
	C1013.997131,3021.378418 1005.680786,2984.553467 992.495544,2948.948242 
	C973.206299,2948.253662 954.856689,2947.274170 937.002380,2949.421387 
	C936.089844,2951.713867 935.203613,2952.906494 935.198242,2954.103271 
	C935.013245,2995.401855 934.911438,3036.700684 934.797913,3081.999756 
M1523.650757,3018.005371 
	C1523.835083,3085.865967 1524.016602,3153.726318 1524.255981,3221.586670 
	C1524.257812,3222.101807 1525.050171,3222.614258 1525.473389,3223.127686 
	C1543.805298,3226.267822 1577.797607,3226.011719 1593.209229,3222.294678 
	C1593.209229,3216.767822 1593.209229,3210.892578 1593.209229,3205.017334 
	C1593.209229,3177.732178 1593.201538,3150.447021 1593.217041,3123.161865 
	C1593.219604,3118.504639 1592.944946,3113.799316 1593.534424,3109.210693 
	C1593.833618,3106.881104 1595.436035,3103.239258 1597.044556,3102.883545 
	C1599.869629,3102.259277 1603.719238,3102.881348 1606.086304,3104.511475 
	C1608.528931,3106.193604 1610.658203,3109.511230 1611.244141,3112.448486 
	C1612.273193,3117.607422 1612.250610,3123.020996 1612.267212,3128.329102 
	C1612.352783,3155.614014 1612.255615,3182.899902 1612.366821,3210.184570 
	C1612.385132,3214.663086 1613.121948,3219.138184 1613.503784,3223.362793 
	C1632.315308,3226.042725 1659.818115,3225.837891 1676.736816,3222.824463 
	C1676.886841,3218.618652 1677.177856,3214.122070 1677.186035,3209.624756 
	C1677.230347,3185.001465 1677.257812,3160.378174 1677.166626,3135.755371 
	C1677.144531,3129.777100 1676.550049,3123.802979 1676.398438,3117.822510 
	C1676.065918,3104.710938 1669.510620,3095.233887 1659.087891,3088.063721 
	C1655.926514,3085.888916 1652.472656,3084.139404 1648.672729,3081.914307 
	C1651.082642,3080.527832 1652.686646,3079.208496 1654.525391,3078.610352 
	C1669.330078,3073.795410 1674.867188,3062.341797 1676.031250,3048.125732 
	C1676.844482,3038.195312 1677.598267,3028.152588 1677.002197,3018.242676 
	C1676.328369,3007.034668 1675.395996,2995.546875 1672.288086,2984.845459 
	C1666.859131,2966.152100 1654.192505,2954.121338 1634.233154,2951.434326 
	C1623.712402,2950.018311 1613.109619,2948.650391 1602.519409,2948.429443 
	C1580.567749,2947.970947 1558.599609,2948.242188 1536.638794,2948.343506 
	C1532.835815,2948.361084 1529.035645,2949.018066 1524.089111,2949.488770 
	C1523.191284,2971.675293 1523.856689,2992.853516 1523.650757,3018.005371 
M3757.426758,3194.389893 
	C3766.436035,3169.562500 3769.404297,3133.786865 3763.679688,3113.330811 
	C3742.388916,3113.333008 3720.733887,3112.063965 3698.103760,3114.259277 
	C3697.728760,3120.540039 3697.297607,3125.706055 3697.136230,3130.880615 
	C3696.762207,3142.853271 3696.683105,3154.837402 3696.128906,3166.800537 
	C3695.947998,3170.708740 3695.394287,3174.927246 3693.693115,3178.348389 
	C3691.884766,3181.984131 3687.871094,3184.381348 3683.649658,3183.058838 
	C3680.825928,3182.174316 3677.048584,3179.896973 3676.363770,3177.485840 
	C3674.573486,3171.182373 3673.490234,3164.466309 3673.459229,3157.908447 
	C3673.235107,3110.631348 3673.266602,3063.352295 3673.439941,3016.074707 
	C3673.461670,3010.160400 3674.320068,3004.143799 3675.635742,2998.367188 
	C3677.089844,2991.982422 3683.519287,2989.289307 3689.801270,2991.764648 
	C3694.041260,2993.435059 3695.778809,2996.996582 3695.918945,3001.174805 
	C3696.431396,3016.469971 3696.703369,3031.772705 3697.125000,3047.071045 
	C3697.303955,3053.566650 3697.629883,3060.058105 3697.876953,3066.249268 
	C3719.157959,3069.755127 3753.356689,3069.162842 3766.170166,3065.147217 
	C3768.249756,3042.085449 3766.921387,3018.894775 3763.203125,2995.948486 
	C3759.341309,2972.116943 3744.359375,2956.678223 3722.321289,2948.361572 
	C3700.485596,2940.121826 3677.688477,2940.111328 3655.499756,2945.916016 
	C3625.256592,2953.827637 3607.464844,2976.536377 3604.598145,3007.857178 
	C3604.295410,3011.165283 3604.290283,3014.506836 3604.272461,3017.833740 
	C3604.056396,3058.444824 3603.519287,3099.059082 3603.862549,3139.665527 
	C3603.974365,3152.891113 3605.905029,3166.171387 3607.875000,3179.295898 
	C3611.640869,3204.385742 3627.446777,3219.308105 3650.622314,3227.121826 
	C3662.702637,3231.194336 3675.290771,3231.914062 3688.057861,3231.855713 
	C3716.729980,3231.725098 3739.753906,3221.179199 3757.426758,3194.389893 
M3495.738037,3201.851318 
	C3497.046143,3193.519775 3495.012939,3184.595947 3499.758057,3176.606445 
	C3506.613770,3176.606445 3513.069580,3176.606445 3519.782959,3176.606445 
	C3525.742432,3192.294189 3521.693848,3208.752930 3525.898438,3223.600098 
	C3544.041016,3225.984131 3578.463379,3225.910400 3594.163818,3223.588623 
	C3594.557129,3222.338623 3595.440186,3221.019531 3595.274902,3219.848389 
	C3582.894775,3132.242432 3570.444336,3044.646484 3557.912598,2957.062012 
	C3557.545410,2954.494385 3556.250732,2952.059082 3555.440430,2949.712646 
	C3534.507568,2947.295898 3472.256348,2947.750488 3457.165039,2950.525146 
	C3455.591553,2961.355713 3453.814209,2972.437012 3452.393311,2983.564209 
	C3446.072998,3033.053223 3439.819092,3082.550781 3433.614258,3132.054443 
	C3430.221436,3159.121826 3426.894775,3186.198242 3423.756104,3213.295898 
	C3423.339600,3216.892578 3424.213623,3220.638428 3424.474121,3224.103516 
	C3452.171387,3226.498291 3479.280029,3225.964600 3493.772949,3222.693604 
	C3494.381104,3217.126221 3495.021729,3211.260742 3495.738037,3201.851318 
M3039.790039,3085.034424 
	C3037.820068,3100.209473 3035.813232,3115.379639 3033.890381,3130.560547 
	C3031.883545,3146.402588 3029.529541,3162.216553 3028.121094,3178.113281 
	C3026.785156,3193.190430 3021.855469,3208.012207 3023.963623,3223.296631 
	C3042.960449,3226.487549 3080.168213,3226.057861 3094.038574,3222.405518 
	C3095.300293,3207.574707 3096.585449,3192.466553 3097.870850,3177.355713 
	C3106.347656,3175.334473 3113.364258,3174.664551 3121.390869,3177.973877 
	C3122.700195,3193.025635 3124.018066,3208.176270 3125.320801,3223.150391 
	C3143.088135,3226.378906 3180.380371,3226.099121 3195.472412,3222.521240 
	C3194.001465,3210.865723 3192.667969,3199.055908 3191.000977,3187.292969 
	C3180.549072,3113.522949 3170.055420,3039.759033 3159.457031,2966.009766 
	C3158.632324,2960.271484 3156.903809,2954.662842 3155.429443,2948.274658 
	C3138.366455,2948.274658 3122.415527,2947.948242 3106.484131,2948.365234 
	C3090.063965,2948.794434 3073.477051,2946.484131 3056.847656,2950.047363 
	C3051.219727,2994.391357 3045.694092,3037.930420 3039.790039,3085.034424 
M1883.856323,3029.180176 
	C1880.234985,3056.888428 1876.558350,3084.589600 1873.006470,3112.306641 
	C1868.776978,3145.310547 1864.576538,3178.318359 1860.582031,3211.351074 
	C1860.068604,3215.596436 1860.865479,3220.000244 1861.097046,3225.278320 
	C1882.355713,3225.278320 1902.291870,3225.328857 1922.227173,3225.216064 
	C1924.806763,3225.201416 1927.381470,3224.341309 1930.301636,3223.810303 
	C1933.665283,3208.133301 1930.964844,3191.813721 1936.598511,3176.589355 
	C1943.823975,3176.589355 1950.254028,3176.589355 1956.983521,3176.589355 
	C1962.706177,3192.279053 1957.800537,3208.893311 1963.149902,3223.550537 
	C1983.597290,3226.237549 2016.261353,3225.981445 2032.562744,3222.859131 
	C2028.992065,3192.708496 2024.014893,3162.617920 2019.929565,3132.421631 
	C2015.736328,3101.427979 2011.871826,3070.376953 2006.908203,3039.504395 
	C2002.081055,3009.479980 1999.567017,2979.045654 1993.014648,2949.692139 
	C1966.496216,2946.927979 1908.011475,2947.682617 1893.706177,2951.039795 
	C1890.583984,2975.651367 1887.413452,3000.644775 1883.856323,3029.180176 
M2309.230713,3176.303711 
	C2313.018799,3179.018799 2312.647217,3183.239258 2313.053467,3187.123047 
	C2314.348389,3199.507080 2315.554443,3211.900635 2316.762207,3223.963379 
	C2341.479736,3226.406982 2372.056152,3225.891357 2386.720459,3222.670410 
	C2383.413574,3199.880615 2380.012451,3176.979004 2376.786377,3154.052490 
	C2373.633057,3131.644531 2370.745117,3109.198975 2367.579346,3086.792725 
	C2364.321045,3063.731934 2360.958496,3040.685059 2357.475586,3017.657227 
	C2354.027344,2994.857422 2352.516357,2971.710693 2346.827148,2949.667969 
	C2317.590088,2946.875244 2261.954590,2947.612793 2248.658447,2950.823486 
	C2242.001221,2984.026367 2214.465332,3208.643311 2215.214844,3223.631836 
	C2234.995850,3226.491211 2270.599854,3226.008301 2284.599609,3222.532471 
	C2286.145996,3207.713867 2287.717529,3192.656006 2289.389893,3176.630371 
	C2295.310303,3176.330566 2300.458984,3176.069824 2309.230713,3176.303711 
M3340.938232,3182.757812 
	C3334.026367,3184.445312 3328.731689,3182.500732 3327.428955,3175.107666 
	C3326.167480,3167.948486 3325.837402,3160.609131 3325.364746,3153.331543 
	C3324.816895,3144.895264 3326.288330,3136.284424 3323.875977,3126.666504 
	C3313.214844,3126.666504 3303.330322,3126.373535 3293.470459,3126.747070 
	C3283.031006,3127.142578 3272.326416,3124.785156 3261.850342,3128.898193 
	C3260.339600,3146.609375 3260.924805,3163.780029 3263.857666,3180.928711 
	C3266.857910,3198.472412 3275.595947,3212.056885 3291.424805,3220.243896 
	C3323.149902,3236.652100 3355.270996,3236.647461 3387.265137,3220.897461 
	C3404.223633,3212.549316 3413.742676,3198.212158 3414.965576,3179.800049 
	C3416.150635,3161.953613 3415.812012,3143.886475 3414.552979,3126.028564 
	C3413.072021,3105.026123 3402.837891,3088.140137 3385.853271,3075.588135 
	C3375.689697,3068.077148 3365.377441,3060.764893 3355.058350,3053.467529 
	C3349.086426,3049.244629 3342.685059,3045.584717 3336.973633,3041.046631 
	C3324.576172,3031.196777 3320.105713,3012.097412 3326.379150,2997.752686 
	C3328.428467,2993.067139 3332.344238,2990.804932 3337.542969,2991.294189 
	C3342.427246,2991.753662 3344.323486,2995.095947 3344.786621,2999.341309 
	C3345.932861,3009.843018 3346.849854,3020.369629 3347.845215,3030.745361 
	C3368.208496,3033.461182 3395.453857,3033.026367 3410.174072,3029.632080 
	C3411.962891,3016.013672 3410.171387,3002.313477 3408.529541,2988.495361 
	C3406.626465,2972.480469 3397.969482,2961.556396 3384.697998,2953.672363 
	C3360.474365,2939.282471 3315.538818,2938.340576 3290.150635,2951.167725 
	C3274.869873,2958.888428 3264.699219,2970.654053 3261.900635,2987.513428 
	C3259.951904,2999.252686 3259.324951,3011.291016 3259.070801,3023.216309 
	C3258.428955,3053.342285 3269.372070,3077.469482 3295.765625,3093.991943 
	C3308.709229,3102.094238 3320.887451,3111.495361 3332.972900,3120.874512 
	C3352.079590,3135.703125 3356.019287,3158.594238 3340.938232,3182.757812 
M1784.365723,3025.322266 
	C1784.387817,3030.406494 1787.437622,3032.280029 1791.999512,3032.301270 
	C1806.643677,3032.369629 1821.288940,3032.451904 1835.932129,3032.323975 
	C1839.704346,3032.290771 1843.470093,3031.506104 1847.753174,3031.006592 
	C1848.692017,3015.316895 1848.789062,3000.868896 1846.333374,2986.364258 
	C1843.794922,2971.370361 1835.237427,2961.065186 1822.587402,2953.628662 
	C1798.221069,2939.304688 1753.378784,2938.279785 1728.052246,2951.162842 
	C1713.566406,2958.531250 1703.662476,2969.565674 1700.230347,2985.599365 
	C1695.871948,3005.960693 1695.013306,3026.433105 1699.454346,3046.975830 
	C1702.808350,3062.489990 1709.920532,3075.636963 1722.772339,3085.280762 
	C1732.882446,3092.867188 1743.134521,3100.264404 1753.280518,3107.803467 
	C1760.755493,3113.357666 1768.139282,3119.034668 1775.605469,3124.601318 
	C1781.790649,3129.211914 1785.817261,3135.409912 1786.704590,3142.885498 
	C1787.718140,3151.422119 1787.836060,3160.108154 1787.676758,3168.717041 
	C1787.619141,3171.826416 1786.007935,3175.108154 1784.438110,3177.941650 
	C1781.987183,3182.364746 1777.019775,3184.285400 1772.518311,3183.035400 
	C1768.327393,3181.871582 1765.241455,3179.020752 1764.866211,3174.812500 
	C1764.099854,3166.214600 1764.157104,3157.546631 1763.681396,3148.918213 
	C1763.294434,3141.899902 1764.932983,3134.598145 1761.595337,3126.359131 
	C1740.842896,3127.939941 1720.581787,3124.482178 1699.589111,3128.597168 
	C1700.184326,3147.651123 1698.385620,3165.489990 1702.300293,3183.333496 
	C1706.147339,3200.869141 1715.831299,3213.312744 1731.527710,3221.536133 
	C1753.816040,3233.213623 1777.459717,3234.449219 1801.407959,3229.432617 
	C1810.977539,3227.427979 1820.428345,3223.328369 1829.021729,3218.544922 
	C1842.545044,3211.016602 1849.939453,3198.867432 1852.429443,3183.301758 
	C1855.620117,3163.355225 1855.091309,3143.614258 1852.234863,3123.718994 
	C1849.662964,3105.807373 1842.554932,3090.491943 1828.067871,3079.371338 
	C1814.891235,3069.256836 1801.248657,3059.748779 1787.797241,3049.992920 
	C1782.419312,3046.092773 1776.612427,3042.681641 1771.689087,3038.278320 
	C1762.359985,3029.934570 1759.202881,3006.305176 1765.677734,2995.641113 
	C1767.946045,2991.904785 1771.909424,2990.025391 1775.948120,2991.581543 
	C1778.633057,2992.615967 1782.116577,2995.395996 1782.515747,2997.840088 
	C1783.793213,3005.663086 1783.799561,3013.693359 1784.365723,3025.322266 
M1384.286377,3157.989014 
	C1384.352173,3178.632324 1384.393188,3199.276123 1384.547852,3219.918701 
	C1384.556641,3221.102295 1385.492920,3222.279053 1385.999634,3223.458252 
	C1402.709106,3226.157227 1487.843140,3226.040283 1504.386353,3223.052246 
	C1503.699097,3206.245605 1505.725586,3189.175293 1503.022217,3171.094238 
	C1487.279541,3170.786377 1472.172119,3170.491211 1457.395996,3170.202393 
	C1453.990601,3152.975830 1454.043091,3125.616455 1457.516235,3108.831299 
	C1466.351196,3108.685303 1475.545532,3108.699463 1484.721924,3108.300537 
	C1488.437988,3108.138916 1492.114990,3107.074707 1496.627319,3106.276611 
	C1495.085815,3088.964600 1498.607178,3072.491211 1494.461182,3056.631592 
	C1481.136719,3053.920898 1468.319824,3057.817383 1455.545898,3053.632568 
	C1455.259766,3036.846191 1452.913452,3020.560791 1457.060181,3003.722656 
	C1468.047119,3003.722656 1477.992920,3003.909668 1487.925293,3003.625732 
	C1491.644653,3003.519531 1495.332642,3002.317383 1499.545776,3001.517822 
	C1498.995728,2983.489990 1501.581055,2966.396729 1498.058960,2949.701660 
	C1472.197388,2946.996338 1399.910278,2947.702148 1384.291748,2951.031494 
	C1384.281128,3018.429199 1384.288574,3086.210938 1384.286377,3157.989014 
M2043.656982,3026.001709 
	C2043.657349,3087.197998 2043.613525,3148.394531 2043.739624,3209.590576 
	C2043.750000,3214.635010 2041.979858,3220.293213 2047.608765,3225.183105 
	C2079.354004,3225.183105 2111.931396,3225.196289 2144.509033,3225.150391 
	C2146.469238,3225.147461 2148.434326,3224.706787 2150.385498,3224.396973 
	C2151.030762,3224.294922 2151.729736,3224.083984 2152.239746,3223.703125 
	C2152.742676,3223.327148 2153.037109,3222.672363 2154.632324,3220.472412 
	C2154.607666,3205.754639 2155.871338,3189.368408 2153.770264,3172.792969 
	C2140.655273,3167.814941 2126.774658,3174.014404 2113.202148,3167.921387 
	C2113.202148,3161.171875 2113.201904,3154.608643 2113.201904,3148.045410 
	C2113.201660,3087.514160 2113.253174,3026.982910 2113.117676,2966.451904 
	C2113.104736,2960.751953 2114.818359,2954.534424 2109.955811,2948.603760 
	C2088.537598,2948.552490 2066.895020,2947.167725 2044.519653,2949.503418 
	C2042.744385,2974.355225 2044.090088,2998.199707 2043.656982,3026.001709 
M2831.746826,3134.000000 
	C2831.746582,3077.336670 2831.790771,3020.673584 2831.668701,2964.010498 
	C2831.657715,2958.931885 2833.411377,2953.232666 2827.444092,2948.207031 
	C2806.707764,2948.742920 2784.911133,2947.107422 2763.762695,2949.205811 
	C2762.633789,2951.498291 2761.568604,2952.653564 2761.566162,2953.811279 
	C2761.380127,3041.795410 2761.269043,3129.780029 2761.227539,3217.764404 
	C2761.226562,3219.619873 2762.102783,3221.476074 2762.533447,3223.187256 
	C2777.906250,3226.070068 2813.139404,3226.214355 2830.033447,3223.529053 
	C2830.538574,3222.347168 2831.478760,3221.167969 2831.485107,3219.983643 
	C2831.633789,3192.656006 2831.680908,3165.327881 2831.746826,3134.000000 
M1184.334351,3137.999756 
	C1184.334229,3080.698242 1184.395996,3023.396484 1184.237427,2966.095459 
	C1184.221680,2960.408936 1186.236328,2954.083740 1180.379150,2948.303711 
	C1170.531494,2948.303711 1159.912354,2947.982666 1149.321655,2948.391846 
	C1138.228760,2948.820557 1126.892700,2946.481689 1115.802002,2950.258301 
	C1115.432617,2953.463135 1114.866333,2956.074707 1114.869019,2958.686035 
	C1114.957642,3045.963379 1115.099487,3133.240967 1115.262451,3220.518311 
	C1115.263550,3221.115234 1115.569336,3221.774170 1115.906372,3222.291260 
	C1116.262207,3222.836670 1116.825928,3223.247070 1118.310547,3224.720703 
	C1138.974487,3225.508789 1160.647095,3225.468506 1183.381470,3224.697021 
	C1185.396973,3196.303467 1183.818970,3169.125488 1184.334351,3137.999756 
z"/>
<path fill="#17375E" opacity="1.000000" stroke="none" 
	d="
M1584.018433,1868.050903 
	C1315.987305,2162.420654 1047.956177,2456.790771 779.883606,2751.122559 
	C779.606812,2751.426514 778.703796,2751.160156 778.116333,2751.160156 
	C767.004883,2715.315186 769.604004,2527.575928 781.364502,2437.329834 
	C808.598022,2228.349365 875.558044,2033.358032 984.573242,1853.064575 
	C1087.217773,1683.307007 1219.018433,1539.859619 1378.826538,1422.414062 
	C1872.000854,1059.972412 2538.785645,1040.224854 3050.043701,1362.553955 
	C3566.075195,1687.892456 3831.685059,2288.293457 3722.517334,2890.112793 
	C3716.516113,2893.248047 3714.725830,2887.346191 3709.702637,2882.813721 
	C3694.598633,2866.954102 3681.226318,2853.044678 3667.726318,2839.260742 
	C3603.478760,2773.661865 3539.207031,2708.086670 3474.920410,2642.526123 
	C3453.025391,2620.197510 3431.526367,2597.453125 3409.009277,2575.768066 
	C3381.358398,2549.138428 3342.965088,2552.620361 3317.519043,2583.768066 
	C3284.488525,2619.994385 3252.462158,2655.401611 3220.572266,2690.930908 
	C3198.884521,2715.093750 3177.387207,2739.427979 3154.504150,2764.159912 
	C3151.069336,2765.982178 3148.935059,2767.330322 3145.740723,2769.347900 
	C3140.875732,2763.975098 3136.518066,2758.984863 3131.973633,2754.171143 
	C3063.366943,2681.505127 2994.727783,2608.870117 2926.111816,2536.213135 
	C2816.783447,2420.446777 2707.472900,2304.663574 2598.126953,2188.914062 
	C2593.099121,2183.591797 2588.186768,2178.053711 2582.553711,2173.428223 
	C2556.609619,2152.125000 2520.184082,2156.213623 2498.408203,2183.071289 
	C2457.270752,2226.487305 2417.337646,2269.237305 2377.499512,2312.075684 
	C2327.700195,2365.625244 2277.978516,2419.247070 2226.786377,2472.766602 
	C2220.489502,2468.293457 2215.187256,2464.287354 2210.837158,2459.428955 
	C2161.482178,2404.309570 2112.289795,2349.044189 2063.019775,2293.848389 
	C1942.729980,2159.090088 1822.426880,2024.343140 1702.111206,1889.607666 
	C1693.676025,1880.161621 1685.275757,1870.673218 1676.537720,1861.511353 
	C1663.841553,1848.198975 1648.123291,1842.285400 1629.727051,1843.196411 
	C1610.453979,1844.151001 1595.417725,1852.710205 1584.018433,1868.050903 
z"/>
<path fill="#D3D3D3" opacity="1.000000" stroke="none" 
	d="
M3318.581299,2583.000732 
	C3342.965088,2552.620361 3381.358398,2549.138428 3409.009277,2575.768066 
	C3431.526367,2597.453125 3453.025391,2620.197510 3474.920410,2642.526123 
	C3539.207031,2708.086670 3603.478760,2773.661865 3667.726318,2839.260742 
	C3681.226318,2853.044678 3694.598633,2866.954102 3708.528320,2882.069580 
	C3701.040039,2883.525879 3693.052734,2883.885986 3685.065674,2883.886475 
	C3219.373291,2883.913086 2753.681152,2883.962646 2287.988770,2883.821045 
	C2245.730469,2883.808105 2205.228271,2874.441162 2165.796631,2859.209229 
	C2134.397217,2847.080566 2105.393311,2830.559570 2080.238037,2808.914307 
	C2047.482056,2780.729004 2017.216309,2749.919189 1996.753906,2710.610352 
	C1985.048096,2688.123047 1975.322876,2665.063721 1966.380859,2641.437012 
	C1951.332886,2601.677246 1935.396606,2562.249756 1919.508667,2522.813477 
	C1907.592896,2493.236816 1895.493286,2463.725098 1882.873535,2434.443848 
	C1870.770874,2406.362305 1858.538086,2378.302979 1845.227173,2350.782959 
	C1811.895142,2281.869873 1778.547485,2212.949951 1743.961304,2144.663330 
	C1724.145874,2105.539795 1702.167725,2067.496582 1680.670654,2029.243774 
	C1660.156616,1992.740112 1639.379639,1956.371582 1617.967407,1920.390625 
	C1607.804688,1903.313110 1598.524658,1885.545044 1584.666138,1869.231934 
	C1595.417725,1852.710205 1610.453979,1844.151001 1629.727051,1843.196411 
	C1648.123291,1842.285400 1663.841553,1848.198975 1676.537720,1861.511353 
	C1685.275757,1870.673218 1693.676025,1880.161621 1702.111206,1889.607666 
	C1822.426880,2024.343140 1942.729980,2159.090088 2063.019775,2293.848389 
	C2112.289795,2349.044189 2161.482178,2404.309570 2210.837158,2459.428955 
	C2215.187256,2464.287354 2220.489502,2468.293457 2226.749512,2474.537109 
	C2225.736084,2495.855957 2229.420898,2515.010498 2233.572754,2533.644287 
	C2240.054688,2562.736328 2247.456543,2591.605469 2258.947510,2619.456787 
	C2282.166748,2675.734131 2314.834961,2725.190186 2360.269531,2765.752686 
	C2373.086182,2777.195312 2387.369873,2787.173828 2401.767578,2796.625488 
	C2424.051270,2811.253906 2447.898193,2823.064453 2472.898926,2832.472656 
	C2507.880615,2845.637451 2543.736084,2854.714600 2581.271729,2856.189209 
	C2585.250977,2856.345459 2589.226318,2856.716553 2593.191162,2857.111816 
	C2601.738525,2857.964111 2610.275635,2859.656494 2618.820801,2859.681641 
	C2724.742920,2859.994385 2830.665527,2860.052490 2936.588135,2860.229736 
	C2947.192139,2860.247559 2957.680176,2860.057617 2968.264648,2862.859375 
	C2975.330811,2864.729736 2983.687500,2865.927979 2991.819824,2860.027344 
	C2988.079102,2852.818359 2985.003174,2846.270752 2981.376465,2840.044189 
	C2975.693115,2830.286621 2969.598145,2820.769775 2963.746338,2811.109131 
	C2938.613281,2769.619141 2914.428711,2727.518066 2888.150146,2686.767578 
	C2856.818359,2638.181396 2823.755859,2590.709229 2791.312012,2542.843262 
	C2783.859375,2531.847900 2776.124023,2521.023438 2768.084961,2510.449951 
	C2740.760742,2474.512695 2713.496338,2438.524658 2685.722900,2402.935547 
	C2661.230225,2371.551270 2636.604248,2340.242432 2611.071777,2309.707031 
	C2589.351807,2283.730957 2566.311035,2258.856445 2543.749756,2233.588135 
	C2530.475342,2218.720703 2516.952148,2204.075195 2503.664062,2189.219482 
	C2501.947998,2187.301025 2500.973145,2184.719238 2499.654785,2182.444580 
	C2520.184082,2156.213623 2556.609619,2152.125000 2582.553711,2173.428223 
	C2588.186768,2178.053711 2593.099121,2183.591797 2598.126953,2188.914062 
	C2707.472900,2304.663574 2816.783447,2420.446777 2926.111816,2536.213135 
	C2994.727783,2608.870117 3063.366943,2681.505127 3131.973633,2754.171143 
	C3136.518066,2758.984863 3140.875732,2763.975098 3145.740723,2769.347900 
	C3148.935059,2767.330322 3151.069336,2765.982178 3154.698975,2765.570068 
	C3158.346924,2769.750732 3159.799316,2773.984375 3162.763184,2776.083252 
	C3185.520996,2792.196289 3208.324707,2808.449707 3233.591797,2820.385986 
	C3260.598877,2833.143555 3288.544678,2843.739746 3317.728027,2850.638184 
	C3351.970459,2858.732422 3386.526367,2864.657227 3421.868408,2864.053955 
	C3453.018066,2863.521973 3484.164062,2865.594482 3515.304199,2860.559082 
	C3531.582275,2857.927246 3548.059082,2856.270996 3564.188232,2852.601562 
	C3569.120850,2851.479736 3575.104736,2853.570557 3579.031250,2847.941162 
	C3580.890381,2841.486572 3576.640137,2836.663330 3573.280762,2832.043945 
	C3551.819336,2802.533936 3529.483398,2773.513672 3504.360596,2747.185059 
	C3469.985840,2711.160156 3435.688477,2674.975342 3397.543457,2642.608643 
	C3375.773682,2624.136719 3353.532227,2606.373047 3330.866699,2589.089600 
	C3327.298828,2586.368652 3322.702148,2584.996582 3318.581299,2583.000732 
z"/>
<path fill="#1A3A60" opacity="1.000000" stroke="none" 
	d="
M2808.000000,3296.284424 
	C3122.386719,3296.284424 3434.773438,3296.284180 3747.985596,3296.284668 
	C3750.336670,3320.668213 3748.831787,3343.129883 3749.108643,3366.493408 
	C3744.714844,3367.185059 3740.968994,3368.085205 3737.184814,3368.295166 
	C3731.869385,3368.591064 3726.525635,3368.376221 3721.193848,3368.376221 
	C2746.159668,3368.376953 1771.125366,3368.376953 796.091187,3368.376953 
	C787.507019,3368.376953 778.922852,3368.376953 770.673462,3368.376953 
	C766.968872,3354.370850 766.442749,3319.618164 769.326172,3298.588867 
	C769.823425,3298.145020 770.268921,3297.612793 770.832703,3297.282959 
	C771.372681,3296.967041 772.035583,3296.687988 772.644470,3296.687988 
	C1450.429565,3296.536865 2128.214844,3296.410889 2808.000000,3296.284424 
z"/>
<path fill="#1C3B61" opacity="1.000000" stroke="none" 
	d="
M2735.943359,3001.330322 
	C2736.496582,3050.302979 2737.026611,3097.534424 2737.253906,3144.767334 
	C2737.311523,3156.723389 2736.811523,3168.716797 2735.856689,3180.636230 
	C2733.664551,3208.000732 2720.457031,3221.455078 2693.321045,3224.401123 
	C2687.383057,3225.046143 2681.375488,3225.279297 2675.398438,3225.299316 
	C2648.115234,3225.391113 2620.831299,3225.339600 2593.547607,3225.339600 
	C2588.971680,3225.339600 2584.395508,3225.339600 2581.720459,3225.339600 
	C2576.087158,3220.921387 2577.176758,3216.674316 2577.173340,3212.898926 
	C2577.101807,3129.717041 2577.096924,3046.534912 2577.170654,2963.353027 
	C2577.174561,2958.866455 2577.978271,2954.380615 2578.444824,2949.531250 
	C2581.962402,2949.024658 2584.499756,2948.348877 2587.039307,2948.341309 
	C2612.326172,2948.265869 2637.617188,2948.058838 2662.898682,2948.438721 
	C2671.492920,2948.567871 2680.071045,2950.193604 2688.643799,2951.240479 
	C2712.415771,2954.143311 2732.833496,2968.596680 2735.943359,3001.330322 
M2667.775879,3141.310059 
	C2667.775635,3102.035156 2667.807617,3062.760498 2667.736572,3023.485596 
	C2667.726807,3018.185303 2667.792236,3012.769287 2666.777588,3007.612549 
	C2665.121826,2999.197266 2660.461670,2997.025146 2649.077148,2998.273926 
	C2646.945801,3015.621826 2647.017578,3159.410156 2649.165527,3175.444580 
	C2661.044922,3175.983887 2664.093994,3174.815430 2665.679443,3166.881348 
	C2667.100830,3159.768311 2667.131104,3152.377686 2667.775879,3141.310059 
z"/>
<path fill="#1E3D63" opacity="1.000000" stroke="none" 
	d="
M2888.031250,3225.370361 
	C2877.010742,3225.115234 2867.718994,3226.079346 2858.927490,3224.460938 
	C2856.306885,3205.588379 2855.200928,3030.422119 2857.131592,2959.735352 
	C2857.218994,2956.544678 2857.814453,2953.368164 2858.293213,2949.120361 
	C2877.619873,2947.450439 2896.072510,2948.521240 2915.430908,2948.291748 
	C2928.013428,2983.527588 2937.108154,3019.397949 2950.617432,3054.034424 
	C2953.950684,3043.033203 2952.856201,3032.068848 2953.038818,3021.216553 
	C2953.240723,3009.227295 2953.085205,2997.231934 2953.085449,2985.239258 
	C2953.085449,2973.981934 2953.085693,2962.724609 2953.085693,2951.900879 
	C2966.042725,2947.437744 2982.103027,2946.847168 3010.013916,2949.595947 
	C3010.538330,2952.360596 3011.633545,2955.447754 3011.635986,2958.536133 
	C3011.706787,3045.149170 3011.670654,3131.762451 3011.611572,3218.375488 
	C3011.610840,3219.669678 3011.104736,3220.963379 3010.558105,3223.580322 
	C2991.455322,3227.634521 2971.775391,3223.986084 2951.734619,3225.741211 
	C2943.709717,3207.627197 2940.499756,3189.311035 2935.204590,3171.678223 
	C2929.900635,3154.017578 2924.841797,3136.283447 2919.875488,3119.267090 
	C2917.748779,3118.877197 2916.839355,3118.463623 2916.572754,3118.719727 
	C2916.176270,3119.099854 2916.121338,3119.953125 2916.116211,3120.606689 
	C2915.857422,3153.899902 2915.622559,3187.193115 2915.355225,3220.486328 
	C2915.350098,3221.124756 2914.988525,3221.760742 2914.517334,3223.299561 
	C2906.961426,3227.410156 2898.194824,3224.584961 2888.031250,3225.370361 
z"/>
<path fill="#1E3D63" opacity="1.000000" stroke="none" 
	d="
M2551.734375,3175.928223 
	C2551.281250,3193.100098 2552.735596,3208.353760 2550.666016,3224.927002 
	C2530.386230,3225.654053 2510.648926,3225.534424 2490.238770,3225.025146 
	C2487.385986,3214.955566 2484.865723,3206.060547 2482.346191,3197.165527 
	C2479.808594,3188.205811 2477.258545,3179.249756 2474.737549,3170.285156 
	C2472.215820,3161.317627 2470.235840,3152.155762 2467.069580,3143.423096 
	C2464.037354,3135.059082 2464.051270,3125.366211 2455.734375,3115.491943 
	C2455.734375,3136.415771 2455.753174,3154.204102 2455.728760,3171.992432 
	C2455.705322,3189.176270 2455.849609,3206.367188 2455.617676,3223.242432 
	C2437.482178,3226.161865 2414.197754,3226.068848 2398.948975,3223.273926 
	C2396.310303,3206.557373 2396.396729,2967.059814 2399.214355,2949.514648 
	C2407.891357,2946.929199 2417.197266,2948.606445 2426.307617,2948.310303 
	C2435.599365,2948.008301 2444.908691,2948.243408 2455.265625,2948.243408 
	C2468.329834,2983.221680 2476.631348,3019.358398 2490.589355,3057.677979 
	C2494.013672,3047.279541 2492.832520,3040.316406 2493.039795,3033.574463 
	C2493.244385,3026.919922 2493.085205,3020.254395 2493.085205,3013.593506 
	C2493.085449,3006.266602 2493.085449,2998.939697 2493.085693,2991.612793 
	C2493.085693,2984.951904 2492.883057,2978.283447 2493.140625,2971.632568 
	C2493.417969,2964.469971 2491.897949,2957.093018 2495.052734,2948.915283 
	C2513.013428,2947.657715 2530.784912,2948.347168 2547.980225,2948.446289 
	C2553.627930,2954.085449 2551.627197,2960.417969 2551.639160,2966.124268 
	C2551.785400,3035.396729 2551.734131,3104.669678 2551.734375,3175.928223 
z"/>
<path fill="#193960" opacity="1.000000" stroke="none" 
	d="
M839.655518,3111.982910 
	C839.761230,3058.010010 839.857422,3006.033203 840.032776,2954.056641 
	C840.036804,2952.874756 840.937378,2951.696045 841.929077,2949.269775 
	C863.036377,2947.251953 884.706665,2948.569336 907.177307,2948.465088 
	C907.977844,2951.885498 909.047119,2954.314209 909.041321,2956.740234 
	C908.873169,3026.040771 909.098572,3095.348145 908.145325,3164.638916 
	C907.597168,3204.480225 881.052185,3230.229248 841.163574,3231.611816 
	C828.545044,3232.049561 815.993225,3231.959473 803.530396,3228.327637 
	C770.525513,3218.709961 752.767822,3197.257568 752.452087,3163.050537 
	C751.818604,3094.416748 751.909302,3025.776367 751.743713,2957.138672 
	C751.738953,2955.172119 752.214172,2953.204590 752.565125,2950.458984 
	C763.245361,2946.166260 774.606750,2948.818359 785.641663,2948.415527 
	C796.800293,2948.008301 808.033386,2947.925781 820.337219,2948.831543 
	C820.663330,2956.659912 821.161987,2963.145020 821.168152,2969.630371 
	C821.227356,3032.278076 821.146301,3094.925781 821.288818,3157.572998 
	C821.303894,3164.157227 822.192200,3170.789307 823.269104,3177.300781 
	C823.834473,3180.719727 826.644897,3183.806641 830.196899,3183.089355 
	C832.993225,3182.524902 836.760498,3180.098877 837.551392,3177.670898 
	C839.160217,3172.731934 839.488708,3167.239258 839.564575,3161.963379 
	C839.794678,3145.971680 839.652649,3129.974121 839.655518,3111.982910 
z"/>
<path fill="#1B3A61" opacity="1.000000" stroke="none" 
	d="
M1287.529175,3099.882080 
	C1291.946533,3050.215088 1296.363892,3000.548096 1300.756836,2951.156738 
	C1314.967773,2947.520020 1353.070923,2947.114990 1372.211914,2950.201172 
	C1372.619019,2967.472168 1345.415527,3188.091064 1338.576782,3222.980713 
	C1324.051270,3225.989258 1273.996460,3226.760498 1236.407593,3224.469238 
	C1235.257080,3221.285889 1233.286743,3217.781494 1232.753662,3214.070557 
	C1222.910278,3145.551270 1213.262085,3077.004395 1203.511108,3008.471924 
	C1201.542480,2994.636475 1199.228516,2980.850342 1197.267334,2967.013916 
	C1196.526855,2961.790039 1196.333618,2956.488770 1195.835083,2950.558105 
	C1207.845459,2946.072754 1219.829712,2948.646484 1231.494629,2948.440674 
	C1243.346802,2948.231201 1255.340820,2946.992920 1268.244629,2949.776855 
	C1270.757690,2973.039062 1273.377808,2996.146484 1275.720337,3019.281982 
	C1278.333984,3045.093750 1280.695190,3070.930908 1283.347168,3099.945312 
	C1284.162354,3109.693115 1284.796509,3116.252441 1285.430664,3122.812012 
	C1285.865112,3122.808594 1286.299683,3122.804932 1286.734131,3122.801270 
	C1286.999146,3115.161621 1287.264160,3107.521729 1287.529175,3099.882080 
z"/>
<path fill="#193960" opacity="1.000000" stroke="none" 
	d="
M934.797852,3079.999512 
	C934.911438,3036.700684 935.013245,2995.401855 935.198242,2954.103271 
	C935.203613,2952.906494 936.089844,2951.713867 937.002380,2949.421387 
	C954.856689,2947.274170 973.206299,2948.253662 992.495544,2948.948242 
	C1005.680786,2984.553467 1013.997131,3021.378418 1027.288574,3057.077393 
	C1032.999634,3053.856201 1030.170410,3049.554443 1030.652954,3046.229248 
	C1031.221313,3042.313721 1030.795166,3038.253662 1030.797241,3034.256104 
	C1030.799438,3030.258545 1030.797974,3026.260986 1030.797974,3022.263428 
	C1030.797974,3018.265869 1030.797974,3014.268555 1030.797974,3010.270996 
	C1030.797974,3006.273438 1030.797974,3002.276123 1030.797974,2998.278564 
	C1030.797974,2994.281006 1030.797974,2990.283691 1030.797974,2986.286133 
	C1030.797974,2982.288574 1030.797607,2978.291260 1030.798218,2974.293701 
	C1030.798828,2970.296143 1030.683594,2966.294434 1030.835205,2962.302490 
	C1030.983398,2958.398193 1031.404175,2954.504395 1031.770996,2949.753906 
	C1049.983887,2946.977051 1067.700928,2948.550293 1086.599243,2948.745361 
	C1087.228882,2952.993408 1088.259888,2956.720947 1088.263794,2960.449219 
	C1088.352661,3045.062500 1088.333740,3129.676025 1088.304688,3214.289307 
	C1088.303711,3216.895020 1087.977051,3219.500488 1087.813599,3221.937256 
	C1075.404419,3225.970215 1053.938232,3226.627930 1027.480713,3223.731689 
	C1015.399963,3188.697998 1008.080078,3151.580566 995.072876,3114.913086 
	C991.089233,3119.388428 992.691528,3123.256592 992.418152,3126.677979 
	C992.100769,3130.650146 992.343262,3134.666992 992.343018,3138.664551 
	C992.342773,3142.662109 992.342896,3146.659424 992.342896,3150.656982 
	C992.342896,3154.654541 992.342896,3158.652100 992.342896,3162.649658 
	C992.342896,3166.647217 992.342896,3170.644531 992.342896,3174.642090 
	C992.342896,3178.639648 992.342896,3182.636963 992.342896,3186.634521 
	C992.342896,3190.632080 992.343201,3194.629395 992.342773,3198.626953 
	C992.342346,3202.624512 992.340820,3206.621826 992.340393,3210.619385 
	C992.339966,3214.525146 992.340332,3218.430908 992.340332,3222.006348 
	C977.896240,3226.038086 957.288269,3226.399170 936.892334,3223.292725 
	C936.381104,3222.794678 935.488464,3222.332031 935.485718,3221.864258 
	C935.212952,3175.242920 935.007568,3128.621338 934.797852,3079.999512 
z"/>
<path fill="#1A3960" opacity="1.000000" stroke="none" 
	d="
M1523.650635,3016.006836 
	C1523.856689,2992.853516 1523.191284,2971.675293 1524.089111,2949.488770 
	C1529.035645,2949.018066 1532.835815,2948.361084 1536.638794,2948.343506 
	C1558.599609,2948.242188 1580.567749,2947.970947 1602.519409,2948.429443 
	C1613.109619,2948.650391 1623.712402,2950.018311 1634.233154,2951.434326 
	C1654.192505,2954.121338 1666.859131,2966.152100 1672.288086,2984.845459 
	C1675.395996,2995.546875 1676.328369,3007.034668 1677.002197,3018.242676 
	C1677.598267,3028.152588 1676.844482,3038.195312 1676.031250,3048.125732 
	C1674.867188,3062.341797 1669.330078,3073.795410 1654.525391,3078.610352 
	C1652.686646,3079.208496 1651.082642,3080.527832 1648.672729,3081.914307 
	C1652.472656,3084.139404 1655.926514,3085.888916 1659.087891,3088.063721 
	C1669.510620,3095.233887 1676.065918,3104.710938 1676.398438,3117.822510 
	C1676.550049,3123.802979 1677.144531,3129.777100 1677.166626,3135.755371 
	C1677.257812,3160.378174 1677.230347,3185.001465 1677.186035,3209.624756 
	C1677.177856,3214.122070 1676.886841,3218.618652 1676.736816,3222.824463 
	C1659.818115,3225.837891 1632.315308,3226.042725 1613.503784,3223.362793 
	C1613.121948,3219.138184 1612.385132,3214.663086 1612.366821,3210.184570 
	C1612.255615,3182.899902 1612.352783,3155.614014 1612.267212,3128.329102 
	C1612.250610,3123.020996 1612.273193,3117.607422 1611.244141,3112.448486 
	C1610.658203,3109.511230 1608.528931,3106.193604 1606.086304,3104.511475 
	C1603.719238,3102.881348 1599.869629,3102.259277 1597.044556,3102.883545 
	C1595.436035,3103.239258 1593.833618,3106.881104 1593.534424,3109.210693 
	C1592.944946,3113.799316 1593.219604,3118.504639 1593.217041,3123.161865 
	C1593.201538,3150.447021 1593.209229,3177.732178 1593.209229,3205.017334 
	C1593.209229,3210.892578 1593.209229,3216.767822 1593.209229,3222.294678 
	C1577.797607,3226.011719 1543.805298,3226.267822 1525.473389,3223.127686 
	C1525.050171,3222.614258 1524.257812,3222.101807 1524.255981,3221.586670 
	C1524.016602,3153.726318 1523.835083,3085.865967 1523.650635,3016.006836 
M1612.588501,3015.355225 
	C1611.956543,3011.496094 1612.093140,3007.285645 1610.525513,3003.854004 
	C1607.660156,2997.581299 1604.273193,2996.812500 1594.387939,2998.495850 
	C1591.890869,3018.037354 1592.201782,3041.111572 1595.149170,3054.984619 
	C1608.351074,3055.470947 1611.554077,3053.416016 1612.314575,3042.668213 
	C1612.872192,3034.786865 1612.536011,3026.842529 1612.588501,3015.355225 
z"/>
<path fill="#1C3B61" opacity="1.000000" stroke="none" 
	d="
M3756.700684,3195.719727 
	C3739.753906,3221.179199 3716.729980,3231.725098 3688.057861,3231.855713 
	C3675.290771,3231.914062 3662.702637,3231.194336 3650.622314,3227.121826 
	C3627.446777,3219.308105 3611.640869,3204.385742 3607.875000,3179.295898 
	C3605.905029,3166.171387 3603.974365,3152.891113 3603.862549,3139.665527 
	C3603.519287,3099.059082 3604.056396,3058.444824 3604.272461,3017.833740 
	C3604.290283,3014.506836 3604.295410,3011.165283 3604.598145,3007.857178 
	C3607.464844,2976.536377 3625.256592,2953.827637 3655.499756,2945.916016 
	C3677.688477,2940.111328 3700.485596,2940.121826 3722.321289,2948.361572 
	C3744.359375,2956.678223 3759.341309,2972.116943 3763.203125,2995.948486 
	C3766.921387,3018.894775 3768.249756,3042.085449 3766.170166,3065.147217 
	C3753.356689,3069.162842 3719.157959,3069.755127 3697.876953,3066.249268 
	C3697.629883,3060.058105 3697.303955,3053.566650 3697.125000,3047.071045 
	C3696.703369,3031.772705 3696.431396,3016.469971 3695.918945,3001.174805 
	C3695.778809,2996.996582 3694.041260,2993.435059 3689.801270,2991.764648 
	C3683.519287,2989.289307 3677.089844,2991.982422 3675.635742,2998.367188 
	C3674.320068,3004.143799 3673.461670,3010.160400 3673.439941,3016.074707 
	C3673.266602,3063.352295 3673.235107,3110.631348 3673.459229,3157.908447 
	C3673.490234,3164.466309 3674.573486,3171.182373 3676.363770,3177.485840 
	C3677.048584,3179.896973 3680.825928,3182.174316 3683.649658,3183.058838 
	C3687.871094,3184.381348 3691.884766,3181.984131 3693.693115,3178.348389 
	C3695.394287,3174.927246 3695.947998,3170.708740 3696.128906,3166.800537 
	C3696.683105,3154.837402 3696.762207,3142.853271 3697.136230,3130.880615 
	C3697.297607,3125.706055 3697.728760,3120.540039 3698.103760,3114.259277 
	C3720.733887,3112.063965 3742.388916,3113.333008 3763.679688,3113.330811 
	C3769.404297,3133.786865 3766.436035,3169.562500 3756.700684,3195.719727 
z"/>
<path fill="#1B3A61" opacity="1.000000" stroke="none" 
	d="
M3495.700195,3203.623047 
	C3495.021729,3211.260742 3494.381104,3217.126221 3493.772949,3222.693604 
	C3479.280029,3225.964600 3452.171387,3226.498291 3424.474121,3224.103516 
	C3424.213623,3220.638428 3423.339600,3216.892578 3423.756104,3213.295898 
	C3426.894775,3186.198242 3430.221436,3159.121826 3433.614258,3132.054443 
	C3439.819092,3082.550781 3446.072998,3033.053223 3452.393311,2983.564209 
	C3453.814209,2972.437012 3455.591553,2961.355713 3457.165039,2950.525146 
	C3472.256348,2947.750488 3534.507568,2947.295898 3555.440430,2949.712646 
	C3556.250732,2952.059082 3557.545410,2954.494385 3557.912598,2957.062012 
	C3570.444336,3044.646484 3582.894775,3132.242432 3595.274902,3219.848389 
	C3595.440186,3221.019531 3594.557129,3222.338623 3594.163086,3223.588379 
	C3578.463379,3225.910400 3544.041016,3225.984131 3525.898438,3223.600098 
	C3521.693848,3208.752930 3525.742432,3192.294189 3519.782959,3176.606445 
	C3513.069580,3176.606445 3506.613770,3176.606445 3499.758057,3176.606445 
	C3495.012939,3184.595947 3497.046143,3193.519775 3495.700195,3203.623047 
M3515.688721,3078.026611 
	C3513.995605,3060.941895 3512.302246,3043.857178 3510.608887,3026.772461 
	C3506.007080,3042.922119 3503.366943,3059.127930 3501.634521,3075.429932 
	C3499.856934,3092.158203 3496.550781,3108.881592 3498.022705,3125.850098 
	C3505.848877,3127.482422 3512.200439,3128.444824 3519.618408,3124.560059 
	C3518.396484,3110.287598 3517.171631,3095.982422 3515.688721,3078.026611 
z"/>
<path fill="#1B3A61" opacity="1.000000" stroke="none" 
	d="
M3039.979248,3083.251953 
	C3045.694092,3037.930420 3051.219727,2994.391357 3056.847656,2950.047363 
	C3073.477051,2946.484131 3090.063965,2948.794434 3106.484131,2948.365234 
	C3122.415527,2947.948242 3138.366455,2948.274658 3155.429443,2948.274658 
	C3156.903809,2954.662842 3158.632324,2960.271484 3159.457031,2966.009766 
	C3170.055420,3039.759033 3180.549072,3113.522949 3191.000977,3187.292969 
	C3192.667969,3199.055908 3194.001465,3210.865723 3195.472412,3222.521240 
	C3180.380371,3226.099121 3143.088135,3226.378906 3125.320801,3223.150391 
	C3124.018066,3208.176270 3122.700195,3193.025635 3121.390869,3177.973877 
	C3113.364258,3174.664551 3106.347656,3175.334473 3097.870850,3177.355713 
	C3096.585449,3192.466553 3095.300293,3207.574707 3094.038574,3222.405518 
	C3080.168213,3226.057861 3042.960449,3226.487549 3023.963623,3223.296631 
	C3021.855469,3208.012207 3026.785156,3193.190430 3028.121094,3178.113281 
	C3029.529541,3162.216553 3031.883545,3146.402588 3033.890381,3130.560547 
	C3035.813232,3115.379639 3037.820068,3100.209473 3039.979248,3083.251953 
M3100.091309,3085.991699 
	C3099.069092,3095.840576 3097.788818,3105.673096 3097.159912,3115.546875 
	C3096.929932,3119.156494 3098.246338,3122.864258 3098.978271,3127.252441 
	C3106.357422,3126.090820 3113.110596,3129.543945 3119.655518,3123.467773 
	C3116.708252,3091.484863 3113.706055,3058.904297 3110.703857,3026.323730 
	C3107.711182,3033.019775 3105.882324,3039.964111 3104.857666,3047.025391 
	C3103.150146,3058.790527 3101.957520,3070.630127 3100.091309,3085.991699 
z"/>
<path fill="#1B3B61" opacity="1.000000" stroke="none" 
	d="
M1884.049561,3027.409180 
	C1887.413452,3000.644775 1890.583984,2975.651367 1893.706177,2951.039795 
	C1908.011475,2947.682617 1966.496216,2946.927979 1993.014648,2949.692139 
	C1999.567017,2979.045654 2002.081055,3009.479980 2006.908203,3039.504395 
	C2011.871826,3070.376953 2015.736328,3101.427979 2019.929565,3132.421631 
	C2024.014893,3162.617920 2028.992065,3192.708496 2032.562744,3222.859131 
	C2016.261353,3225.981445 1983.597290,3226.237549 1963.149902,3223.550537 
	C1957.800537,3208.893311 1962.706177,3192.279053 1956.983521,3176.589355 
	C1950.254028,3176.589355 1943.823975,3176.589355 1936.598511,3176.589355 
	C1930.964844,3191.813721 1933.665283,3208.133301 1930.301636,3223.810303 
	C1927.381470,3224.341309 1924.806763,3225.201416 1922.227173,3225.216064 
	C1902.291870,3225.328857 1882.355713,3225.278320 1861.097046,3225.278320 
	C1860.865479,3220.000244 1860.068604,3215.596436 1860.582031,3211.351074 
	C1864.576538,3178.318359 1868.776978,3145.310547 1873.006470,3112.306641 
	C1876.558350,3084.589600 1880.234985,3056.888428 1884.049561,3027.409180 
M1943.475098,3127.113770 
	C1947.259033,3126.835449 1951.042847,3126.557129 1955.805298,3126.206787 
	C1955.805298,3120.366211 1956.160522,3115.827637 1955.744385,3111.361084 
	C1953.835571,3090.873535 1951.752930,3070.402100 1949.642700,3049.934082 
	C1948.801147,3041.770264 1947.727051,3033.630371 1946.758789,3025.479736 
	C1941.336548,3055.130371 1937.944946,3084.789795 1934.735229,3114.468750 
	C1934.388550,3117.674805 1934.649170,3121.122559 1935.527100,3124.201660 
	C1935.894287,3125.489502 1938.610352,3126.107666 1943.475098,3127.113770 
z"/>
<path fill="#1B3A61" opacity="1.000000" stroke="none" 
	d="
M2307.419434,3176.056641 
	C2300.458984,3176.069824 2295.310303,3176.330566 2289.389893,3176.630371 
	C2287.717529,3192.656006 2286.145996,3207.713867 2284.599609,3222.532471 
	C2270.599854,3226.008301 2234.995850,3226.491211 2215.214844,3223.631836 
	C2214.465332,3208.643311 2242.001221,2984.026367 2248.658447,2950.823486 
	C2261.954590,2947.612793 2317.590088,2946.875244 2346.827148,2949.667969 
	C2352.516357,2971.710693 2354.027344,2994.857422 2357.475586,3017.657227 
	C2360.958496,3040.685059 2364.321045,3063.731934 2367.579346,3086.792725 
	C2370.745117,3109.198975 2373.633057,3131.644531 2376.786377,3154.052490 
	C2380.012451,3176.979004 2383.413574,3199.880615 2386.720459,3222.670410 
	C2372.056152,3225.891357 2341.479736,3226.406982 2316.762207,3223.963379 
	C2315.554443,3211.900635 2314.348389,3199.507080 2313.053467,3187.123047 
	C2312.647217,3183.239258 2313.018799,3179.018799 2307.419434,3176.056641 
M2296.098633,3047.387695 
	C2294.558105,3060.530029 2292.510498,3073.638184 2291.621094,3086.824463 
	C2290.750732,3099.724365 2285.729736,3112.565186 2289.540527,3125.837158 
	C2296.843262,3127.424316 2303.175293,3128.359375 2310.744629,3124.494873 
	C2308.169434,3097.740234 2305.589355,3070.932861 2303.426758,3041.247803 
	C2303.418457,3036.113525 2303.776855,3030.885498 2298.617676,3022.536377 
	C2297.836426,3032.479980 2297.379395,3038.297363 2296.098633,3047.387695 
z"/>
<path fill="#1B3B61" opacity="1.000000" stroke="none" 
	d="
M3342.407715,3181.821777 
	C3356.019287,3158.594238 3352.079590,3135.703125 3332.972900,3120.874512 
	C3320.887451,3111.495361 3308.709229,3102.094238 3295.765625,3093.991943 
	C3269.372070,3077.469482 3258.428955,3053.342285 3259.070801,3023.216309 
	C3259.324951,3011.291016 3259.951904,2999.252686 3261.900635,2987.513428 
	C3264.699219,2970.654053 3274.869873,2958.888428 3290.150635,2951.167725 
	C3315.538818,2938.340576 3360.474365,2939.282471 3384.697998,2953.672363 
	C3397.969482,2961.556396 3406.626465,2972.480469 3408.529541,2988.495361 
	C3410.171387,3002.313477 3411.962891,3016.013672 3410.174072,3029.632080 
	C3395.453857,3033.026367 3368.208496,3033.461182 3347.845215,3030.745361 
	C3346.849854,3020.369629 3345.932861,3009.843018 3344.786621,2999.341309 
	C3344.323486,2995.095947 3342.427246,2991.753662 3337.542969,2991.294189 
	C3332.344238,2990.804932 3328.428467,2993.067139 3326.379150,2997.752686 
	C3320.105713,3012.097412 3324.576172,3031.196777 3336.973633,3041.046631 
	C3342.685059,3045.584717 3349.086426,3049.244629 3355.058350,3053.467529 
	C3365.377441,3060.764893 3375.689697,3068.077148 3385.853271,3075.588135 
	C3402.837891,3088.140137 3413.072021,3105.026123 3414.552979,3126.028564 
	C3415.812012,3143.886475 3416.150635,3161.953613 3414.965576,3179.800049 
	C3413.742676,3198.212158 3404.223633,3212.549316 3387.265137,3220.897461 
	C3355.270996,3236.647461 3323.149902,3236.652100 3291.424805,3220.243896 
	C3275.595947,3212.056885 3266.857910,3198.472412 3263.857666,3180.928711 
	C3260.924805,3163.780029 3260.339600,3146.609375 3261.850342,3128.898193 
	C3272.326416,3124.785156 3283.031006,3127.142578 3293.470459,3126.747070 
	C3303.330322,3126.373535 3313.214844,3126.666504 3323.875977,3126.666504 
	C3326.288330,3136.284424 3324.816895,3144.895264 3325.364746,3153.331543 
	C3325.837402,3160.609131 3326.167480,3167.948486 3327.428955,3175.107666 
	C3328.731689,3182.500732 3334.026367,3184.445312 3342.407715,3181.821777 
z"/>
<path fill="#1C3B61" opacity="1.000000" stroke="none" 
	d="
M1784.331177,3023.482910 
	C1783.799561,3013.693359 1783.793213,3005.663086 1782.515747,2997.840088 
	C1782.116577,2995.395996 1778.633057,2992.615967 1775.948120,2991.581543 
	C1771.909424,2990.025391 1767.946045,2991.904785 1765.677734,2995.641113 
	C1759.202881,3006.305176 1762.359985,3029.934570 1771.689087,3038.278320 
	C1776.612427,3042.681641 1782.419312,3046.092773 1787.797241,3049.992920 
	C1801.248657,3059.748779 1814.891235,3069.256836 1828.067871,3079.371338 
	C1842.554932,3090.491943 1849.662964,3105.807373 1852.234863,3123.718994 
	C1855.091309,3143.614258 1855.620117,3163.355225 1852.429443,3183.301758 
	C1849.939453,3198.867432 1842.545044,3211.016602 1829.021729,3218.544922 
	C1820.428345,3223.328369 1810.977539,3227.427979 1801.407959,3229.432617 
	C1777.459717,3234.449219 1753.816040,3233.213623 1731.527710,3221.536133 
	C1715.831299,3213.312744 1706.147339,3200.869141 1702.300293,3183.333496 
	C1698.385620,3165.489990 1700.184326,3147.651123 1699.589111,3128.597168 
	C1720.581787,3124.482178 1740.842896,3127.939941 1761.595337,3126.359131 
	C1764.932983,3134.598145 1763.294434,3141.899902 1763.681396,3148.918213 
	C1764.157104,3157.546631 1764.099854,3166.214600 1764.866211,3174.812500 
	C1765.241455,3179.020752 1768.327393,3181.871582 1772.518311,3183.035400 
	C1777.019775,3184.285400 1781.987183,3182.364746 1784.438110,3177.941650 
	C1786.007935,3175.108154 1787.619141,3171.826416 1787.676758,3168.717041 
	C1787.836060,3160.108154 1787.718140,3151.422119 1786.704590,3142.885498 
	C1785.817261,3135.409912 1781.790649,3129.211914 1775.605469,3124.601318 
	C1768.139282,3119.034668 1760.755493,3113.357666 1753.280518,3107.803467 
	C1743.134521,3100.264404 1732.882446,3092.867188 1722.772339,3085.280762 
	C1709.920532,3075.636963 1702.808350,3062.489990 1699.454346,3046.975830 
	C1695.013306,3026.433105 1695.871948,3005.960693 1700.230347,2985.599365 
	C1703.662476,2969.565674 1713.566406,2958.531250 1728.052246,2951.162842 
	C1753.378784,2938.279785 1798.221069,2939.304688 1822.587402,2953.628662 
	C1835.237427,2961.065186 1843.794922,2971.370361 1846.333374,2986.364258 
	C1848.789062,3000.868896 1848.692017,3015.316895 1847.753174,3031.006592 
	C1843.470093,3031.506104 1839.704346,3032.290771 1835.932129,3032.323975 
	C1821.288940,3032.451904 1806.643677,3032.369629 1791.999512,3032.301270 
	C1787.437622,3032.280029 1784.387817,3030.406494 1784.331177,3023.482910 
z"/>
<path fill="#1C3B61" opacity="1.000000" stroke="none" 
	d="
M1384.286377,3155.990723 
	C1384.288574,3086.210938 1384.281128,3018.429199 1384.291748,2951.031494 
	C1399.910278,2947.702148 1472.197388,2946.996338 1498.058960,2949.701660 
	C1501.581055,2966.396729 1498.995728,2983.489990 1499.545776,3001.517822 
	C1495.332642,3002.317383 1491.644653,3003.519531 1487.925293,3003.625732 
	C1477.992920,3003.909668 1468.047119,3003.722656 1457.060181,3003.722656 
	C1452.913452,3020.560791 1455.259766,3036.846191 1455.545898,3053.632568 
	C1468.319824,3057.817383 1481.136719,3053.920898 1494.461182,3056.631592 
	C1498.607178,3072.491211 1495.085815,3088.964600 1496.627319,3106.276611 
	C1492.114990,3107.074707 1488.437988,3108.138916 1484.721924,3108.300537 
	C1475.545532,3108.699463 1466.351196,3108.685303 1457.516235,3108.831299 
	C1454.043091,3125.616455 1453.990601,3152.975830 1457.395996,3170.202393 
	C1472.172119,3170.491211 1487.279541,3170.786377 1503.022217,3171.094238 
	C1505.725586,3189.175293 1503.699097,3206.245605 1504.386353,3223.052246 
	C1487.843140,3226.040283 1402.709106,3226.157227 1385.998535,3223.458740 
	C1385.492920,3222.279053 1384.556641,3221.102295 1384.547852,3219.918701 
	C1384.393188,3199.276123 1384.352173,3178.632324 1384.286377,3155.990723 
z"/>
<path fill="#193960" opacity="1.000000" stroke="none" 
	d="
M2043.656982,3024.001953 
	C2044.090088,2998.199707 2042.744385,2974.355225 2044.519653,2949.503418 
	C2066.895020,2947.167725 2088.537598,2948.552490 2109.955811,2948.603760 
	C2114.818359,2954.534424 2113.104736,2960.751953 2113.117676,2966.451904 
	C2113.253174,3026.982910 2113.201660,3087.514160 2113.201904,3148.045410 
	C2113.201904,3154.608643 2113.202148,3161.171875 2113.202148,3167.921387 
	C2126.774658,3174.014404 2140.655273,3167.814941 2153.770264,3172.792969 
	C2155.871338,3189.368408 2154.607666,3205.754639 2154.632324,3220.472412 
	C2153.037109,3222.672363 2152.742676,3223.327148 2152.239746,3223.703125 
	C2151.729736,3224.083984 2151.030762,3224.294922 2150.385498,3224.396973 
	C2148.434326,3224.706787 2146.469238,3225.147461 2144.509033,3225.150391 
	C2111.931396,3225.196289 2079.354004,3225.183105 2047.608765,3225.183105 
	C2041.979858,3220.293213 2043.750000,3214.635010 2043.739624,3209.590576 
	C2043.613525,3148.394531 2043.657349,3087.197998 2043.656982,3024.001953 
z"/>
<path fill="#1F3E63" opacity="1.000000" stroke="none" 
	d="
M2831.747070,3136.000000 
	C2831.680908,3165.327881 2831.633789,3192.656006 2831.485107,3219.983643 
	C2831.478760,3221.167969 2830.538574,3222.347168 2830.032471,3223.528564 
	C2813.139404,3226.214355 2777.906250,3226.070068 2762.533447,3223.187256 
	C2762.102783,3221.476074 2761.226562,3219.619873 2761.227539,3217.764404 
	C2761.269043,3129.780029 2761.380127,3041.795410 2761.566162,2953.811279 
	C2761.568604,2952.653564 2762.633789,2951.498291 2763.762695,2949.205811 
	C2784.911133,2947.107422 2806.707764,2948.742920 2827.444092,2948.207031 
	C2833.411377,2953.232666 2831.657715,2958.931885 2831.668701,2964.010498 
	C2831.790771,3020.673584 2831.746582,3077.336670 2831.747070,3136.000000 
z"/>
<path fill="#19385F" opacity="1.000000" stroke="none" 
	d="
M1184.334351,3139.999512 
	C1183.818970,3169.125488 1185.396973,3196.303467 1183.381470,3224.697021 
	C1160.647095,3225.468506 1138.974487,3225.508789 1118.310547,3224.720703 
	C1116.825928,3223.247070 1116.262207,3222.836670 1115.906372,3222.291260 
	C1115.569336,3221.774170 1115.263550,3221.115234 1115.262451,3220.518311 
	C1115.099487,3133.240967 1114.957642,3045.963379 1114.869019,2958.686035 
	C1114.866333,2956.074707 1115.432617,2953.463135 1115.802002,2950.258301 
	C1126.892700,2946.481689 1138.228760,2948.820557 1149.321655,2948.391846 
	C1159.912354,2947.982666 1170.531494,2948.303711 1180.379150,2948.303711 
	C1186.236328,2954.083740 1184.221680,2960.408936 1184.237427,2966.095459 
	C1184.395996,3023.396484 1184.334229,3080.698242 1184.334351,3139.999512 
z"/>
<path fill="#D3D3D3" opacity="1.000000" stroke="none" 
	d="
M1286.673096,3099.863525 
	C1287.264160,3107.521729 1286.999146,3115.161621 1286.734131,3122.801270 
	C1286.299683,3122.804932 1285.865112,3122.808594 1285.430664,3122.812012 
	C1284.796509,3116.252441 1284.162354,3109.693115 1283.819092,3101.559326 
	C1284.109985,3099.985107 1285.816895,3099.844971 1286.673096,3099.863525 
z"/>
<path fill="#FFFFFF" opacity="1.000000" stroke="none" 
	d="
M2498.408203,2183.071289 
	C2500.973145,2184.719238 2501.947998,2187.301025 2503.664062,2189.219482 
	C2516.952148,2204.075195 2530.475342,2218.720703 2543.749756,2233.588135 
	C2566.311035,2258.856445 2589.351807,2283.730957 2611.071777,2309.707031 
	C2636.604248,2340.242432 2661.230225,2371.551270 2685.722900,2402.935547 
	C2713.496338,2438.524658 2740.760742,2474.512695 2768.084961,2510.449951 
	C2776.124023,2521.023438 2783.859375,2531.847900 2791.312012,2542.843262 
	C2823.755859,2590.709229 2856.818359,2638.181396 2888.150146,2686.767578 
	C2914.428711,2727.518066 2938.613281,2769.619141 2963.746338,2811.109131 
	C2969.598145,2820.769775 2975.693115,2830.286621 2981.376465,2840.044189 
	C2985.003174,2846.270752 2988.079102,2852.818359 2991.819824,2860.027344 
	C2983.687500,2865.927979 2975.330811,2864.729736 2968.264648,2862.859375 
	C2957.680176,2860.057617 2947.192139,2860.247559 2936.588135,2860.229736 
	C2830.665527,2860.052490 2724.742920,2859.994385 2618.820801,2859.681641 
	C2610.275635,2859.656494 2601.738525,2857.964111 2593.191162,2857.111816 
	C2589.226318,2856.716553 2585.250977,2856.345459 2581.271729,2856.189209 
	C2543.736084,2854.714600 2507.880615,2845.637451 2472.898926,2832.472656 
	C2447.898193,2823.064453 2424.051270,2811.253906 2401.767578,2796.625488 
	C2387.369873,2787.173828 2373.086182,2777.195312 2360.269531,2765.752686 
	C2314.834961,2725.190186 2282.166748,2675.734131 2258.947510,2619.456787 
	C2247.456543,2591.605469 2240.054688,2562.736328 2233.572754,2533.644287 
	C2229.420898,2515.010498 2225.736084,2495.855957 2228.186523,2474.608398 
	C2277.978516,2419.247070 2327.700195,2365.625244 2377.499512,2312.075684 
	C2417.337646,2269.237305 2457.270752,2226.487305 2498.408203,2183.071289 
z"/>
<path fill="#FEFEFE" opacity="1.000000" stroke="none" 
	d="
M3317.519043,2583.768066 
	C3322.702148,2584.996582 3327.298828,2586.368652 3330.866699,2589.089600 
	C3353.532227,2606.373047 3375.773682,2624.136719 3397.543457,2642.608643 
	C3435.688477,2674.975342 3469.985840,2711.160156 3504.360596,2747.185059 
	C3529.483398,2773.513672 3551.819336,2802.533936 3573.280762,2832.043945 
	C3576.640137,2836.663330 3580.890381,2841.486572 3579.031250,2847.941162 
	C3575.104736,2853.570557 3569.120850,2851.479736 3564.188232,2852.601562 
	C3548.059082,2856.270996 3531.582275,2857.927246 3515.304199,2860.559082 
	C3484.164062,2865.594482 3453.018066,2863.521973 3421.868408,2864.053955 
	C3386.526367,2864.657227 3351.970459,2858.732422 3317.728027,2850.638184 
	C3288.544678,2843.739746 3260.598877,2833.143555 3233.591797,2820.385986 
	C3208.324707,2808.449707 3185.520996,2792.196289 3162.763184,2776.083252 
	C3159.799316,2773.984375 3158.346924,2769.750732 3155.999512,2765.095947 
	C3177.387207,2739.427979 3198.884521,2715.093750 3220.572266,2690.930908 
	C3252.462158,2655.401611 3284.488525,2619.994385 3317.519043,2583.768066 
z"/>
<path fill="#F2F4F6" opacity="1.000000" stroke="none" 
	d="
M2667.775391,3143.209717 
	C2667.131104,3152.377686 2667.100830,3159.768311 2665.679443,3166.881348 
	C2664.093994,3174.815430 2661.044922,3175.983887 2649.165527,3175.444580 
	C2647.017578,3159.410156 2646.945801,3015.621826 2649.077148,2998.273926 
	C2660.461670,2997.025146 2665.121826,2999.197266 2666.777588,3007.612549 
	C2667.792236,3012.769287 2667.726807,3018.185303 2667.736572,3023.485596 
	C2667.807617,3062.760498 2667.775635,3102.035156 2667.775391,3143.209717 
z"/>
<path fill="#E5E8ED" opacity="1.000000" stroke="none" 
	d="
M1612.593262,3017.140625 
	C1612.536011,3026.842529 1612.872192,3034.786865 1612.314575,3042.668213 
	C1611.554077,3053.416016 1608.351074,3055.470947 1595.149170,3054.984619 
	C1592.201782,3041.111572 1591.890869,3018.037354 1594.387939,2998.495850 
	C1604.273193,2996.812500 1607.660156,2997.581299 1610.525513,3003.854004 
	C1612.093140,3007.285645 1611.956543,3011.496094 1612.593262,3017.140625 
z"/>
<path fill="#E0E4E9" opacity="1.000000" stroke="none" 
	d="
M3515.817871,3079.852051 
	C3517.171631,3095.982422 3518.396484,3110.287598 3519.618408,3124.560059 
	C3512.200439,3128.444824 3505.848877,3127.482422 3498.022705,3125.850098 
	C3496.550781,3108.881592 3499.856934,3092.158203 3501.634521,3075.429932 
	C3503.366943,3059.127930 3506.007080,3042.922119 3510.608887,3026.772461 
	C3512.302246,3043.857178 3513.995605,3060.941895 3515.817871,3079.852051 
z"/>
<path fill="#E0E4E9" opacity="1.000000" stroke="none" 
	d="
M3100.319824,3084.215088 
	C3101.957520,3070.630127 3103.150146,3058.790527 3104.857666,3047.025391 
	C3105.882324,3039.964111 3107.711182,3033.019775 3110.703857,3026.323730 
	C3113.706055,3058.904297 3116.708252,3091.484863 3119.655518,3123.467773 
	C3113.110596,3129.543945 3106.357422,3126.090820 3098.978271,3127.252441 
	C3098.246338,3122.864258 3096.929932,3119.156494 3097.159912,3115.546875 
	C3097.788818,3105.673096 3099.069092,3095.840576 3100.319824,3084.215088 
z"/>
<path fill="#E5E8ED" opacity="1.000000" stroke="none" 
	d="
M1941.866699,3127.072266 
	C1938.610352,3126.107666 1935.894287,3125.489502 1935.527100,3124.201660 
	C1934.649170,3121.122559 1934.388550,3117.674805 1934.735229,3114.468750 
	C1937.944946,3084.789795 1941.336548,3055.130371 1946.758789,3025.479736 
	C1947.727051,3033.630371 1948.801147,3041.770264 1949.642700,3049.934082 
	C1951.752930,3070.402100 1953.835571,3090.873535 1955.744385,3111.361084 
	C1956.160522,3115.827637 1955.805298,3120.366211 1955.805298,3126.206787 
	C1951.042847,3126.557129 1947.259033,3126.835449 1941.866699,3127.072266 
z"/>
<path fill="#E5E8ED" opacity="1.000000" stroke="none" 
	d="
M2303.009277,3044.125488 
	C2305.589355,3070.932861 2308.169434,3097.740234 2310.744629,3124.494873 
	C2303.175293,3128.359375 2296.843262,3127.424316 2289.540527,3125.837158 
	C2285.729736,3112.565186 2290.750732,3099.724365 2291.621094,3086.824463 
	C2292.510498,3073.638184 2294.558105,3060.530029 2297.524658,3045.796387 
	C2300.303467,3044.178467 2301.656494,3044.152100 2303.009277,3044.125488 
z"/>
<path fill="#D3D3D3" opacity="1.000000" stroke="none" 
	d="
M2303.218018,3042.686523 
	C2301.656494,3044.152100 2300.303467,3044.178467 2297.936523,3044.159668 
	C2297.379395,3038.297363 2297.836426,3032.479980 2298.617676,3022.536377 
	C2303.776855,3030.885498 2303.418457,3036.113525 2303.218018,3042.686523 
z"/>
</svg>